<svg t="1747411901053" class="icon" viewBox="0 0 1024 1024" version="1.1" xmlns="http://www.w3.org/2000/svg" p-id="4097" width="200" height="200"><path d="M543.89 146.286c5.705 0 8.485 2.706 8.485 8.119V473.38H869.23c5.632 0 8.484 2.706 8.484 8.118v61.002c0 5.412-2.852 8.045-8.484 8.045H552.375v319.05c0 5.412-2.78 8.118-8.485 8.118h-63.78c-5.705 0-8.485-2.706-8.485-8.119l-0.073-319.049H154.843c-5.705 0-8.557-2.633-8.557-8.045v-61.002c0-5.412 2.852-8.045 8.484-8.045l316.782-0.073V154.478c0-5.486 2.926-8.192 8.558-8.192h63.78z" p-id="4098"></path></svg>