<svg t="1747383905787" class="icon" viewBox="0 0 1024 1024" version="1.1" xmlns="http://www.w3.org/2000/svg" p-id="8089" width="200" height="200"><path d="M298.666667 405.333333a42.666667 42.666667 0 0 0 0 85.333334h426.666666a42.666667 42.666667 0 1 0 0-85.333334H298.666667zM341.333333 554.666667a42.666667 42.666667 0 1 0 0 85.333333h341.333334a42.666667 42.666667 0 1 0 0-85.333333H341.333333zM384 704a42.666667 42.666667 0 1 0 0 85.333333h256a42.666667 42.666667 0 1 0 0-85.333333H384z" p-id="8090"></path><path d="M405.333333 42.666667a106.666667 106.666667 0 0 0-104.661333 85.973333c-29.013333 0.810667-54.869333 2.56-77.482667 6.741333-33.706667 6.186667-63.488 18.218667-87.893333 42.624-27.989333 27.989333-39.594667 62.933333-44.885333 102.528C85.333333 318.208 85.333333 365.866667 85.333333 423.594667v262.144c0 57.770667 0 105.386667 5.077334 143.061333 5.290667 39.594667 16.896 74.538667 44.928 102.528 27.989333 28.032 62.933333 39.594667 102.528 44.928 37.717333 5.077333 85.333333 5.077333 143.061333 5.077333h262.144c57.770667 0 105.386667 0 143.061333-5.077333 39.594667-5.333333 74.538667-16.896 102.528-44.928 28.032-27.989333 39.594667-62.933333 44.928-102.528 5.077333-37.717333 5.077333-85.333333 5.077334-143.061333V423.594667c0-57.770667 0-105.386667-5.077334-143.061334-5.333333-39.594667-16.896-74.538667-44.928-102.528-24.405333-24.405333-54.186667-36.437333-87.893333-42.624-22.570667-4.138667-48.426667-5.930667-77.44-6.741333A106.666667 106.666667 0 0 0 618.666667 42.666667h-213.333334zM384 149.333333a21.333333 21.333333 0 0 1 21.333333-21.333333h213.333334a21.333333 21.333333 0 0 1 21.333333 21.333333v42.666667a21.333333 21.333333 0 0 1-21.333333 21.333333h-213.333334a21.333333 21.333333 0 0 1-21.333333-21.333333v-42.666667zM238.634667 219.306667c16.213333-2.986667 36.352-4.522667 62.293333-5.290667A106.666667 106.666667 0 0 0 405.333333 298.666667h213.333334a106.666667 106.666667 0 0 0 104.405333-84.650667c25.941333 0.768 46.08 2.304 62.293333 5.290667 22.826667 4.181333 34.56 10.666667 42.965334 19.029333 9.514667 9.472 16.64 23.466667 20.693333 53.546667 4.224 31.36 4.309333 73.216 4.309333 134.784v256c0 61.568-0.085333 103.424-4.266666 134.784-4.096 30.08-11.221333 44.074667-20.736 53.546666-9.472 9.514667-23.466667 16.64-53.546667 20.693334-31.36 4.224-73.216 4.309333-134.784 4.309333H384c-61.568 0-103.424-0.085333-134.784-4.266667-30.08-4.096-44.074667-11.221333-53.546667-20.736-9.514667-9.514667-16.64-23.466667-20.693333-53.589333C170.752 786.133333 170.666667 744.277333 170.666667 682.666667v-256c0-61.568 0.085333-103.424 4.266666-134.784 4.096-30.08 11.221333-44.074667 20.736-53.546667 8.362667-8.405333 20.138667-14.848 42.965334-19.029333z" p-id="8091"></path></svg>