<svg t="1724585711223" class="icon" viewBox="0 0 1024 1024" version="1.1" xmlns="http://www.w3.org/2000/svg" p-id="9899" xmlns:xlink="http://www.w3.org/1999/xlink" width="200" height="200"><path d="M467.456 964.5056a498.688 498.688 0 0 1-61.44-4.608l-5.4784-0.8704c-155.904-23.808-262.2464-175.2064-266.8544-181.6064-150.4768-229.2224-75.264-461.312 66.9184-589.7216 141.2608-128.4096 376.9856-183.4496 583.3216-17.408 132.9664 107.3152 173.3632 255.8976 175.2064 262.2976v1.8432c19.2 104.4992 3.6352 181.6064-46.7968 231.1168-77.056 74.3424-204.4928 50.432-222.0032 46.7968-23.8592-2.7648-41.2672 4.5568-54.0672 20.1216-13.7216 17.408-16.4864 40.3456-11.9296 54.1184 12.8 38.5024 14.6432 67.84 5.5296 89.856-26.624 57.856-80.7424 88.064-162.4064 88.064z m-58.6752-60.5184l5.4784 0.9216c88.9856 13.7728 143.104-3.6352 165.0688-53.1456 0-0.9216 4.608-12.8-7.3216-49.5616-11.9296-33.024-2.7648-76.1344 21.0432-105.472 24.832-31.1808 61.44-44.9024 104.5504-40.3456l2.7648 0.9216c0.9216 0 114.5856 24.7296 173.3632-32.1024 35.7888-34.9184 46.7456-95.3856 31.232-179.8144-3.6864-11.8784-43.1616-141.2096-156.8256-232.0384-179.8144-146.6368-386.1504-98.048-510.8736 14.7456C122.624 332.5952 38.2464 531.6096 179.456 747.2128c0.9216 0 97.28 137.5744 229.3248 156.7744z" p-id="9900"></path><path d="M193.28 532.5312a55.04 55.04 0 1 0 110.08 0 55.04 55.04 0 0 0-110.08 0zM257.536 367.5136a55.04 55.04 0 1 0 110.08-0.0512 55.04 55.04 0 0 0-110.08 0z m165.0176-91.7504a55.04 55.04 0 1 0 110.08 0 55.04 55.04 0 0 0-110.08 0z m183.4496 45.8752a55.04 55.04 0 1 0 110.08 0 55.04 55.04 0 0 0-110.08 0z m91.7504 146.7392a55.04 55.04 0 1 0 110.08 0 55.04 55.04 0 0 0-110.08 0z" p-id="9901"></path></svg>