<svg t="1747383791581" class="icon" viewBox="0 0 1024 1024" version="1.1" xmlns="http://www.w3.org/2000/svg" p-id="3669" width="200" height="200"><path d="M819.2 819.2v-68.266667h68.266667c40.96 0 68.266667-27.306667 68.266666-68.266666V136.533333c0-40.96-27.306667-68.266667-68.266666-68.266666H341.333333c-40.96 0-68.266667 27.306667-68.266666 68.266666v68.266667H204.8V136.533333c0-75.093333 61.44-136.533333 136.533333-136.533333h546.133334c75.093333 0 136.533333 61.44 136.533333 136.533333v546.133334c0 75.093333-61.44 136.533333-136.533333 136.533333h-68.266667z" p-id="3670"></path><path d="M136.533333 204.8h546.133334c75.093333 0 136.533333 61.44 136.533333 136.533333v546.133334c0 75.093333-61.44 136.533333-136.533333 136.533333H136.533333c-75.093333 0-136.533333-61.44-136.533333-136.533333V341.333333c0-75.093333 61.44-136.533333 136.533333-136.533333z m0 68.266667c-40.96 0-68.266667 27.306667-68.266666 68.266666v546.133334c0 40.96 27.306667 68.266667 68.266666 68.266666h546.133334c40.96 0 68.266667-27.306667 68.266666-68.266666V341.333333c0-40.96-27.306667-68.266667-68.266666-68.266666H136.533333z" p-id="3671"></path><path d="M238.933333 477.866667h341.333334c20.48 0 34.133333 13.653333 34.133333 34.133333s-13.653333 34.133333-34.133333 34.133333h-341.333334c-20.48 0-34.133333-13.653333-34.133333-34.133333s13.653333-34.133333 34.133333-34.133333zM238.933333 682.666667h341.333334c20.48 0 34.133333 13.653333 34.133333 34.133333s-13.653333 34.133333-34.133333 34.133333h-341.333334c-20.48 0-34.133333-13.653333-34.133333-34.133333s13.653333-34.133333 34.133333-34.133333z" p-id="3672"></path></svg>