<svg t="1732295005356" class="icon" viewBox="0 0 1024 1024" version="1.1" xmlns="http://www.w3.org/2000/svg" p-id="15566" width="200" height="200"><path d="M69.194461 55.891655v892.07373h892.073731V55.891655H69.194461z m870.399097 870.399097H90.869095V77.566289h848.724463v848.724463z" p-id="15567"></path><path d="M494.831884 742.816785c73.957462 0 140.738814-31.27469 187.843212-81.283488l109.700739 79.229817 12.688691-17.57271-108.145584-78.106348c35.053301-44.075367 56.030734-99.826137 56.030734-160.386869 0-142.326481-115.791311-258.117792-258.117792-258.117793s-258.117792 115.791311-258.117792 258.117793 115.791311 258.119599 258.117792 258.119598z m0-494.562757c130.376533 0 236.443159 106.068432 236.443159 236.443159 0 130.376533-106.068432 236.444965-236.443159 236.444965-130.374727 0-236.443159-106.068432-236.443159-236.444965 0-130.376533 106.068432-236.443159 236.443159-236.443159z" p-id="15568"></path></svg>