<svg t="1747411860265" class="icon" viewBox="0 0 1024 1024" version="1.1" xmlns="http://www.w3.org/2000/svg" p-id="3124" width="200" height="200"><path d="M1015.851146 964.556666 700.21098 654.191604C769.377826 583.646932 796.225742 496.883285 796.225742 391.69614 796.225742 175.141319 623.87944-0.039366 402.246348-0.039366 180.652622-0.039366 0.314932 176.164847 0.314932 392.719668 0.314932 609.274489 177.818238 775.912656 399.45133 775.912656 491.962479 775.912656 579.828387 754.418576 647.853606 702.887898L965.73766 1015.457481C971.563894 1021.165616 979.161618 1024 986.798708 1024 994.435799 1024 1007.033062 1015.300015 1012.819929 1009.591881 1024.472397 998.254344 1027.464247 975.933569 1015.851146 964.556666L1015.851146 964.556666ZM63.852376 387.877595C63.852376 208.169768 213.444872 62.041519 397.286176 62.041519 581.166846 62.041519 730.759342 208.169768 730.759342 387.877595 730.759342 567.506689 581.166846 713.674304 397.286176 713.674304 213.444872 713.674304 63.852376 567.506689 63.852376 387.877595L63.852376 387.877595Z" p-id="3125"></path></svg>