<svg t="1736570044752" class="icon" viewBox="0 0 1024 1024" version="1.1" xmlns="http://www.w3.org/2000/svg" p-id="4972" width="200" height="200"><path d="M727.616 571.84l222.101 222.101a107.947 107.947 0 0 1 0.107 152.534l-3.35 3.349a107.797 107.797 0 0 1-152.533-0.107L571.84 727.616A361.11 361.11 0 0 1 405.333 768C205.035 768 42.667 605.632 42.667 405.333S205.035 42.667 405.333 42.667 768 205.035 768 405.333c0 60.011-14.57 116.63-40.384 166.507z m-48.896 71.787a363.27 363.27 0 0 1-35.093 35.093l210.666 210.667a22.464 22.464 0 0 0 31.851 0.106l3.35-3.349a22.613 22.613 0 0 0-0.107-31.85L678.72 643.626z m-273.387 39.04c153.174 0 277.334-124.16 277.334-277.334S558.507 128 405.333 128 128 252.16 128 405.333s124.16 277.334 277.333 277.334z" p-id="4973"></path></svg>