<svg t="1732372077682" class="icon" viewBox="0 0 1024 1024" version="1.1" xmlns="http://www.w3.org/2000/svg" p-id="2729" width="200" height="200"><path d="M880 192H144A16.042667 16.042667 0 0 0 128 208v32c0 8.789333 7.210667 16 16 16h736A16.042667 16.042667 0 0 0 896 240v-32a16.042667 16.042667 0 0 0-16-16z m0 576H144a16.042667 16.042667 0 0 0-16 16v32c0 8.789333 7.210667 16 16 16h736a16.042667 16.042667 0 0 0 16-16v-32a16.042667 16.042667 0 0 0-16-16z m-512-288h512c8.789333 0 16 7.210667 16 16v32a16.042667 16.042667 0 0 1-16 16h-512a16.042667 16.042667 0 0 1-16-16v-32c0-8.789333 7.210667-16 16-16z m-239.829333 18.432a16 16 0 0 0 0 23.168l140.8 134.101333a16 16 0 0 0 27.008-11.562666V375.850667a16 16 0 0 0-27.008-11.562667l-140.8 134.144z" p-id="2730"></path></svg>