<svg t="1732372136587" class="icon" viewBox="0 0 1024 1024" version="1.1" xmlns="http://www.w3.org/2000/svg" p-id="3706" width="200" height="200"><path d="M880 192H144A16.042667 16.042667 0 0 0 128 208v32c0 8.789333 7.210667 16 16 16h736A16.042667 16.042667 0 0 0 896 240v-32a16.042667 16.042667 0 0 0-16-16z m0 576H144a16.042667 16.042667 0 0 0-16 16v32c0 8.789333 7.210667 16 16 16h736a16.042667 16.042667 0 0 0 16-16v-32a16.042667 16.042667 0 0 0-16-16z m-224-288h-512a16.042667 16.042667 0 0 0-16 16v32c0 8.789333 7.210667 16 16 16h512a16.042667 16.042667 0 0 0 16-16v-32a16.042667 16.042667 0 0 0-16-16z m239.829333 18.432a16 16 0 0 1 0 23.168l-140.8 134.101333a16 16 0 0 1-27.050666-11.562666V375.850667c0-14.08 16.853333-21.290667 27.050666-11.562667l140.8 134.144z" p-id="3707"></path></svg>