<svg t="1732286380573" class="icon" viewBox="0 0 1024 1024" version="1.1" xmlns="http://www.w3.org/2000/svg" p-id="2511" xmlns:xlink="http://www.w3.org/1999/xlink" width="200" height="200"><path d="M725.76 398.912a64.064 64.064 0 0 1 0-128 64.064 64.064 0 0 1 0 128M384 816a64.064 64.064 0 0 1-128 0 64.064 64.064 0 0 1 128 0m-128-608a64.064 64.064 0 0 1 128 0 64.064 64.064 0 0 1-128 0m597.76 126.912a128 128 0 1 0-189.76 112.128 104.96 104.96 0 0 1-14.72 18.176c-20.096 20.032-61.248 47.36-143.36 63.36-73.088 14.336-121.6 40.768-153.92 69.568V331.968a128 128 0 1 0-64 0v360.064a128 128 0 1 0 71.104 2.112c13.312-31.36 51.2-81.664 159.04-102.72 145.792-28.544 193.984-91.392 209.92-128.576a128 128 0 0 0 125.76-127.936" fill="#666666" p-id="2512"></path></svg>