<svg t="1732367420823" class="icon" viewBox="0 0 1051 1024" version="1.1" xmlns="http://www.w3.org/2000/svg" p-id="46153" width="200" height="200"><path d="M944.931171 476.656879a106.672522 106.672522 0 0 0-100.426674 71.005438H403.679067V295.855994h291.253789a32.872888 32.872888 0 0 0 32.872888-32.872889V32.872888a32.872888 32.872888 0 0 0-32.872888-32.872888H32.872888a32.872888 32.872888 0 0 0-32.872888 32.872888v230.110217a32.872888 32.872888 0 0 0 32.872888 32.872889h305.060403v621.133222a32.872888 32.872888 0 0 0 32.872888 32.872888h185.403089a107.001251 107.001251 0 1 0 0-65.745776h-152.530201V613.408093h438.688693A106.836887 106.836887 0 1 0 944.931171 476.656879zM657.457764 875.733741a41.255475 41.255475 0 1 1-41.255475 41.255475A41.419839 41.419839 0 0 1 657.457764 875.733741zM65.745776 230.110217V65.745776h596.314192v164.364441z m879.185395 394.474658A41.09111 41.09111 0 0 1 904.004425 583.822494a37.310728 37.310728 0 0 1 0-4.273475A41.255475 41.255475 0 1 1 944.931171 624.584875z" p-id="46154"></path></svg>